<?xml version="1.0" encoding="UTF-8" standalone="no"?>
<!DOCTYPE svg PUBLIC "-//W3C//DTD SVG 1.1//EN"
 "http://www.w3.org/Graphics/SVG/1.1/DTD/svg11.dtd">
<!-- Generated by graphviz version 2.47.0 (20210316.0004)
 -->
<!-- Title: dbml Pages: 1 -->
<svg width="1458pt" height="2954pt"
 viewBox="0.00 0.00 1458.21 2954.49" xmlns="http://www.w3.org/2000/svg" xmlns:xlink="http://www.w3.org/1999/xlink">
<g id="graph0" class="graph" transform="scale(1 1) rotate(0) translate(4 2950.49)">
<title>dbml</title>
<!-- Department -->
<g id="Department" class="node">
<title>Department</title>
<ellipse fill="none" stroke="black" stroke-width="0" cx="361.33" cy="-1515.96" rx="263.09" ry="172.57"/>
<polygon fill="#1d71b8" stroke="transparent" points="177.33,-1575.96 177.33,-1635.96 545.33,-1635.96 545.33,-1575.96 177.33,-1575.96"/>
<polygon fill="none" stroke="#29235c" points="177.33,-1575.96 177.33,-1635.96 545.33,-1635.96 545.33,-1575.96 177.33,-1575.96"/>
<text text-anchor="start" x="215.51" y="-1597.16" font-family="Helvetica,sans-Serif" font-weight="bold" font-size="32.00" fill="#ffffff"> &#160;&#160;&#160;&#160;&#160;&#160;Department &#160;&#160;&#160;&#160;&#160;&#160;</text>
<polygon fill="#e7e2dd" stroke="transparent" points="177.33,-1515.96 177.33,-1575.96 545.33,-1575.96 545.33,-1515.96 177.33,-1515.96"/>
<polygon fill="none" stroke="#29235c" points="177.33,-1515.96 177.33,-1575.96 545.33,-1575.96 545.33,-1515.96 177.33,-1515.96"/>
<text text-anchor="start" x="188.33" y="-1537.16" font-family="Helvetica,sans-Serif" font-weight="bold" font-size="32.00" fill="#29235c">id</text>
<text text-anchor="start" x="213.22" y="-1537.16" font-family="Helvetica,sans-Serif" font-size="32.00" fill="#29235c"> &#160;&#160;&#160;</text>
<text text-anchor="start" x="392.11" y="-1537.16" font-family="Helvetica,sans-Serif" font-style="italic" font-size="32.00" fill="#29235c">INTEGER</text>
<polygon fill="#e7e2dd" stroke="transparent" points="177.33,-1455.96 177.33,-1515.96 545.33,-1515.96 545.33,-1455.96 177.33,-1455.96"/>
<polygon fill="none" stroke="#29235c" points="177.33,-1455.96 177.33,-1515.96 545.33,-1515.96 545.33,-1455.96 177.33,-1455.96"/>
<text text-anchor="start" x="188.04" y="-1476.16" font-family="Helvetica,sans-Serif" font-size="32.00" fill="#29235c">name &#160;&#160;&#160;</text>
<text text-anchor="start" x="303.28" y="-1477.16" font-family="Helvetica,sans-Serif" font-style="italic" font-size="32.00" fill="#29235c">VARCHAR(100)</text>
<polygon fill="#e7e2dd" stroke="transparent" points="177.33,-1395.96 177.33,-1455.96 545.33,-1455.96 545.33,-1395.96 177.33,-1395.96"/>
<polygon fill="none" stroke="#29235c" points="177.33,-1395.96 177.33,-1455.96 545.33,-1455.96 545.33,-1395.96 177.33,-1395.96"/>
<text text-anchor="start" x="188.33" y="-1416.16" font-family="Helvetica,sans-Serif" font-size="32.00" fill="#29235c">head &#160;&#160;&#160;</text>
<text text-anchor="start" x="392.11" y="-1417.16" font-family="Helvetica,sans-Serif" font-style="italic" font-size="32.00" fill="#29235c">INTEGER</text>
<polygon fill="none" stroke="#29235c" stroke-width="2" points="176.33,-1394.96 176.33,-1636.96 546.33,-1636.96 546.33,-1394.96 176.33,-1394.96"/>
</g>
<!-- Personnel -->
<g id="Personnel" class="node">
<title>Personnel</title>
<ellipse fill="none" stroke="black" stroke-width="0" cx="1104.44" cy="-1502.96" rx="345.55" ry="257.27"/>
<polygon fill="#1d71b8" stroke="transparent" points="862.44,-1622.96 862.44,-1682.96 1347.44,-1682.96 1347.44,-1622.96 862.44,-1622.96"/>
<polygon fill="none" stroke="#29235c" points="862.44,-1622.96 862.44,-1682.96 1347.44,-1682.96 1347.44,-1622.96 862.44,-1622.96"/>
<text text-anchor="start" x="970.67" y="-1644.16" font-family="Helvetica,sans-Serif" font-weight="bold" font-size="32.00" fill="#ffffff"> &#160;&#160;&#160;&#160;&#160;&#160;Personnel &#160;&#160;&#160;&#160;&#160;&#160;</text>
<polygon fill="#e7e2dd" stroke="transparent" points="862.44,-1562.96 862.44,-1622.96 1347.44,-1622.96 1347.44,-1562.96 862.44,-1562.96"/>
<polygon fill="none" stroke="#29235c" points="862.44,-1562.96 862.44,-1622.96 1347.44,-1622.96 1347.44,-1562.96 862.44,-1562.96"/>
<text text-anchor="start" x="873.44" y="-1584.16" font-family="Helvetica,sans-Serif" font-weight="bold" font-size="32.00" fill="#29235c">id</text>
<text text-anchor="start" x="898.33" y="-1584.16" font-family="Helvetica,sans-Serif" font-size="32.00" fill="#29235c"> &#160;&#160;&#160;</text>
<text text-anchor="start" x="1194.22" y="-1584.16" font-family="Helvetica,sans-Serif" font-style="italic" font-size="32.00" fill="#29235c">INTEGER</text>
<polygon fill="#e7e2dd" stroke="transparent" points="862.44,-1502.96 862.44,-1562.96 1347.44,-1562.96 1347.44,-1502.96 862.44,-1502.96"/>
<polygon fill="none" stroke="#29235c" points="862.44,-1502.96 862.44,-1562.96 1347.44,-1562.96 1347.44,-1502.96 862.44,-1502.96"/>
<text text-anchor="start" x="873.44" y="-1523.16" font-family="Helvetica,sans-Serif" font-size="32.00" fill="#29235c">first_name &#160;&#160;&#160;</text>
<text text-anchor="start" x="1105.34" y="-1524.16" font-family="Helvetica,sans-Serif" font-style="italic" font-size="32.00" fill="#29235c">VARCHAR(100)</text>
<polygon fill="#e7e2dd" stroke="transparent" points="862.44,-1442.96 862.44,-1502.96 1347.44,-1502.96 1347.44,-1442.96 862.44,-1442.96"/>
<polygon fill="none" stroke="#29235c" points="862.44,-1442.96 862.44,-1502.96 1347.44,-1502.96 1347.44,-1442.96 862.44,-1442.96"/>
<text text-anchor="start" x="873.44" y="-1463.16" font-family="Helvetica,sans-Serif" font-size="32.00" fill="#29235c">last_name &#160;&#160;&#160;</text>
<text text-anchor="start" x="1105.34" y="-1464.16" font-family="Helvetica,sans-Serif" font-style="italic" font-size="32.00" fill="#29235c">VARCHAR(100)</text>
<polygon fill="#e7e2dd" stroke="transparent" points="862.44,-1382.96 862.44,-1442.96 1347.44,-1442.96 1347.44,-1382.96 862.44,-1382.96"/>
<polygon fill="none" stroke="#29235c" points="862.44,-1382.96 862.44,-1442.96 1347.44,-1442.96 1347.44,-1382.96 862.44,-1382.96"/>
<text text-anchor="start" x="873.44" y="-1403.16" font-family="Helvetica,sans-Serif" font-size="32.00" fill="#29235c">email &#160;&#160;&#160;</text>
<text text-anchor="start" x="1105.34" y="-1404.16" font-family="Helvetica,sans-Serif" font-style="italic" font-size="32.00" fill="#29235c">VARCHAR(100)</text>
<polygon fill="#e7e2dd" stroke="transparent" points="862.44,-1322.96 862.44,-1382.96 1347.44,-1382.96 1347.44,-1322.96 862.44,-1322.96"/>
<polygon fill="none" stroke="#29235c" points="862.44,-1322.96 862.44,-1382.96 1347.44,-1382.96 1347.44,-1322.96 862.44,-1322.96"/>
<text text-anchor="start" x="873.06" y="-1343.16" font-family="Helvetica,sans-Serif" font-size="32.00" fill="#29235c">phone_number &#160;&#160;&#160;</text>
<text text-anchor="start" x="1123.28" y="-1344.16" font-family="Helvetica,sans-Serif" font-style="italic" font-size="32.00" fill="#29235c">VARCHAR(50)</text>
<polygon fill="none" stroke="#29235c" stroke-width="2" points="860.94,-1321.96 860.94,-1683.96 1347.94,-1683.96 1347.94,-1321.96 860.94,-1321.96"/>
</g>
<!-- Department&#45;&gt;Personnel -->
<!-- Department&#45;&gt;Personnel -->
<g id="edge2" class="edge">
<title>Department:e&#45;&gt;Personnel:w</title>
<path fill="none" stroke="#29235c" stroke-width="3" d="M546.33,-1425.96C701.27,-1425.96 702.94,-1585.54 851,-1592.71"/>
<polygon fill="#29235c" stroke="#29235c" stroke-width="3" points="851.36,-1596.22 861.44,-1592.96 851.52,-1589.22 851.36,-1596.22"/>
<text text-anchor="middle" x="867.66" y="-1602.56" font-family="Helvetica,sans-Serif" font-size="32.00" fill="#29235c">*</text>
<text text-anchor="middle" x="555.23" y="-1435.56" font-family="Helvetica,sans-Serif" font-size="32.00" fill="#29235c">1</text>
</g>
<!-- Feedback -->
<g id="Feedback" class="node">
<title>Feedback</title>
<ellipse fill="none" stroke="black" stroke-width="0" cx="361.33" cy="-2368.96" rx="354.94" ry="214.92"/>
<polygon fill="#1d71b8" stroke="transparent" points="112.33,-2458.96 112.33,-2518.96 610.33,-2518.96 610.33,-2458.96 112.33,-2458.96"/>
<polygon fill="none" stroke="#29235c" points="112.33,-2458.96 112.33,-2518.96 610.33,-2518.96 610.33,-2458.96 112.33,-2458.96"/>
<text text-anchor="start" x="228.84" y="-2480.16" font-family="Helvetica,sans-Serif" font-weight="bold" font-size="32.00" fill="#ffffff"> &#160;&#160;&#160;&#160;&#160;&#160;Feedback &#160;&#160;&#160;&#160;&#160;&#160;</text>
<polygon fill="#e7e2dd" stroke="transparent" points="112.33,-2398.96 112.33,-2458.96 610.33,-2458.96 610.33,-2398.96 112.33,-2398.96"/>
<polygon fill="none" stroke="#29235c" points="112.33,-2398.96 112.33,-2458.96 610.33,-2458.96 610.33,-2398.96 112.33,-2398.96"/>
<text text-anchor="start" x="123.33" y="-2420.16" font-family="Helvetica,sans-Serif" font-weight="bold" font-size="32.00" fill="#29235c">id</text>
<text text-anchor="start" x="148.22" y="-2420.16" font-family="Helvetica,sans-Serif" font-size="32.00" fill="#29235c"> &#160;&#160;&#160;</text>
<text text-anchor="start" x="457.11" y="-2420.16" font-family="Helvetica,sans-Serif" font-style="italic" font-size="32.00" fill="#29235c">INTEGER</text>
<polygon fill="#e7e2dd" stroke="transparent" points="112.33,-2338.96 112.33,-2398.96 610.33,-2398.96 610.33,-2338.96 112.33,-2338.96"/>
<polygon fill="none" stroke="#29235c" points="112.33,-2338.96 112.33,-2398.96 610.33,-2398.96 610.33,-2338.96 112.33,-2338.96"/>
<text text-anchor="start" x="123.33" y="-2359.16" font-family="Helvetica,sans-Serif" font-size="32.00" fill="#29235c">personnel_id &#160;&#160;&#160;</text>
<text text-anchor="start" x="457.11" y="-2360.16" font-family="Helvetica,sans-Serif" font-style="italic" font-size="32.00" fill="#29235c">INTEGER</text>
<polygon fill="#e7e2dd" stroke="transparent" points="112.33,-2278.96 112.33,-2338.96 610.33,-2338.96 610.33,-2278.96 112.33,-2278.96"/>
<polygon fill="none" stroke="#29235c" points="112.33,-2278.96 112.33,-2338.96 610.33,-2338.96 610.33,-2278.96 112.33,-2278.96"/>
<text text-anchor="start" x="123.33" y="-2299.16" font-family="Helvetica,sans-Serif" font-size="32.00" fill="#29235c">project_id &#160;&#160;&#160;</text>
<text text-anchor="start" x="457.11" y="-2300.16" font-family="Helvetica,sans-Serif" font-style="italic" font-size="32.00" fill="#29235c">INTEGER</text>
<polygon fill="#e7e2dd" stroke="transparent" points="112.33,-2218.96 112.33,-2278.96 610.33,-2278.96 610.33,-2218.96 112.33,-2218.96"/>
<polygon fill="none" stroke="#29235c" points="112.33,-2218.96 112.33,-2278.96 610.33,-2278.96 610.33,-2218.96 112.33,-2218.96"/>
<text text-anchor="start" x="123.1" y="-2239.16" font-family="Helvetica,sans-Serif" font-size="32.00" fill="#29235c">feedback_note &#160;&#160;&#160;</text>
<text text-anchor="start" x="368.28" y="-2240.16" font-family="Helvetica,sans-Serif" font-style="italic" font-size="32.00" fill="#29235c">VARCHAR(500)</text>
<polygon fill="none" stroke="#29235c" stroke-width="2" points="111.33,-2217.96 111.33,-2519.96 611.33,-2519.96 611.33,-2217.96 111.33,-2217.96"/>
</g>
<!-- Feedback&#45;&gt;Personnel -->
<!-- Feedback&#45;&gt;Personnel -->
<g id="edge4" class="edge">
<title>Feedback:e&#45;&gt;Personnel:w</title>
<path fill="none" stroke="#29235c" stroke-width="3" d="M611.33,-2368.96C722.51,-2368.96 689.52,-2251.08 722.66,-2144.96 797.04,-1906.8 613.61,-1601.44 851.31,-1593.13"/>
<polygon fill="#29235c" stroke="#29235c" stroke-width="3" points="851.5,-1596.63 861.44,-1592.96 851.38,-1589.63 851.5,-1596.63"/>
<text text-anchor="middle" x="867.66" y="-1564.16" font-family="Helvetica,sans-Serif" font-size="32.00" fill="#29235c">*</text>
<text text-anchor="middle" x="620.23" y="-2378.56" font-family="Helvetica,sans-Serif" font-size="32.00" fill="#29235c">1</text>
</g>
<!-- Project -->
<g id="Project" class="node">
<title>Project</title>
<ellipse fill="none" stroke="black" stroke-width="0" cx="1104.44" cy="-2120.96" rx="263.09" ry="214.92"/>
<polygon fill="#1d71b8" stroke="transparent" points="920.44,-2210.96 920.44,-2270.96 1288.44,-2270.96 1288.44,-2210.96 920.44,-2210.96"/>
<polygon fill="none" stroke="#29235c" points="920.44,-2210.96 920.44,-2270.96 1288.44,-2270.96 1288.44,-2210.96 920.44,-2210.96"/>
<text text-anchor="start" x="992.41" y="-2232.16" font-family="Helvetica,sans-Serif" font-weight="bold" font-size="32.00" fill="#ffffff"> &#160;&#160;&#160;&#160;&#160;&#160;Project &#160;&#160;&#160;&#160;&#160;&#160;</text>
<polygon fill="#e7e2dd" stroke="transparent" points="920.44,-2150.96 920.44,-2210.96 1288.44,-2210.96 1288.44,-2150.96 920.44,-2150.96"/>
<polygon fill="none" stroke="#29235c" points="920.44,-2150.96 920.44,-2210.96 1288.44,-2210.96 1288.44,-2150.96 920.44,-2150.96"/>
<text text-anchor="start" x="931.44" y="-2172.16" font-family="Helvetica,sans-Serif" font-weight="bold" font-size="32.00" fill="#29235c">id</text>
<text text-anchor="start" x="956.33" y="-2172.16" font-family="Helvetica,sans-Serif" font-size="32.00" fill="#29235c"> &#160;&#160;&#160;</text>
<text text-anchor="start" x="1135.22" y="-2172.16" font-family="Helvetica,sans-Serif" font-style="italic" font-size="32.00" fill="#29235c">INTEGER</text>
<polygon fill="#e7e2dd" stroke="transparent" points="920.44,-2090.96 920.44,-2150.96 1288.44,-2150.96 1288.44,-2090.96 920.44,-2090.96"/>
<polygon fill="none" stroke="#29235c" points="920.44,-2090.96 920.44,-2150.96 1288.44,-2150.96 1288.44,-2090.96 920.44,-2090.96"/>
<text text-anchor="start" x="931.14" y="-2111.16" font-family="Helvetica,sans-Serif" font-size="32.00" fill="#29235c">name &#160;&#160;&#160;</text>
<text text-anchor="start" x="1046.39" y="-2112.16" font-family="Helvetica,sans-Serif" font-style="italic" font-size="32.00" fill="#29235c">VARCHAR(100)</text>
<polygon fill="#e7e2dd" stroke="transparent" points="920.44,-2030.96 920.44,-2090.96 1288.44,-2090.96 1288.44,-2030.96 920.44,-2030.96"/>
<polygon fill="none" stroke="#29235c" points="920.44,-2030.96 920.44,-2090.96 1288.44,-2090.96 1288.44,-2030.96 920.44,-2030.96"/>
<text text-anchor="start" x="931.44" y="-2051.16" font-family="Helvetica,sans-Serif" font-size="32.00" fill="#29235c">start_date &#160;&#160;&#160;</text>
<text text-anchor="start" x="1192.11" y="-2052.16" font-family="Helvetica,sans-Serif" font-style="italic" font-size="32.00" fill="#29235c">DATE</text>
<polygon fill="#e7e2dd" stroke="transparent" points="920.44,-1970.96 920.44,-2030.96 1288.44,-2030.96 1288.44,-1970.96 920.44,-1970.96"/>
<polygon fill="none" stroke="#29235c" points="920.44,-1970.96 920.44,-2030.96 1288.44,-2030.96 1288.44,-1970.96 920.44,-1970.96"/>
<text text-anchor="start" x="931.44" y="-1991.16" font-family="Helvetica,sans-Serif" font-size="32.00" fill="#29235c">end_date &#160;&#160;&#160;</text>
<text text-anchor="start" x="1192.11" y="-1992.16" font-family="Helvetica,sans-Serif" font-style="italic" font-size="32.00" fill="#29235c">DATE</text>
<polygon fill="none" stroke="#29235c" stroke-width="2" points="919.44,-1969.96 919.44,-2271.96 1289.44,-2271.96 1289.44,-1969.96 919.44,-1969.96"/>
</g>
<!-- Feedback&#45;&gt;Project -->
<!-- Feedback&#45;&gt;Project -->
<g id="edge6" class="edge">
<title>Feedback:e&#45;&gt;Project:w</title>
<path fill="none" stroke="#29235c" stroke-width="3" d="M611.33,-2308.96C756.14,-2308.96 770.54,-2186.89 909.23,-2181.17"/>
<polygon fill="#29235c" stroke="#29235c" stroke-width="3" points="909.51,-2184.66 919.44,-2180.96 909.37,-2177.66 909.51,-2184.66"/>
<text text-anchor="middle" x="925.66" y="-2190.56" font-family="Helvetica,sans-Serif" font-size="32.00" fill="#29235c">*</text>
<text text-anchor="middle" x="620.23" y="-2318.56" font-family="Helvetica,sans-Serif" font-size="32.00" fill="#29235c">1</text>
</g>
<!-- JobRole -->
<g id="JobRole" class="node">
<title>JobRole</title>
<ellipse fill="none" stroke="black" stroke-width="0" cx="1104.44" cy="-244.96" rx="316.15" ry="172.57"/>
<polygon fill="#1d71b8" stroke="transparent" points="883.44,-304.96 883.44,-364.96 1326.44,-364.96 1326.44,-304.96 883.44,-304.96"/>
<polygon fill="none" stroke="#29235c" points="883.44,-304.96 883.44,-364.96 1326.44,-364.96 1326.44,-304.96 883.44,-304.96"/>
<text text-anchor="start" x="984.01" y="-326.16" font-family="Helvetica,sans-Serif" font-weight="bold" font-size="32.00" fill="#ffffff"> &#160;&#160;&#160;&#160;&#160;&#160;JobRole &#160;&#160;&#160;&#160;&#160;&#160;</text>
<polygon fill="#e7e2dd" stroke="transparent" points="883.44,-244.96 883.44,-304.96 1326.44,-304.96 1326.44,-244.96 883.44,-244.96"/>
<polygon fill="none" stroke="#29235c" points="883.44,-244.96 883.44,-304.96 1326.44,-304.96 1326.44,-244.96 883.44,-244.96"/>
<text text-anchor="start" x="894.44" y="-266.16" font-family="Helvetica,sans-Serif" font-weight="bold" font-size="32.00" fill="#29235c">id</text>
<text text-anchor="start" x="919.33" y="-266.16" font-family="Helvetica,sans-Serif" font-size="32.00" fill="#29235c"> &#160;&#160;&#160;</text>
<text text-anchor="start" x="1173.22" y="-266.16" font-family="Helvetica,sans-Serif" font-style="italic" font-size="32.00" fill="#29235c">INTEGER</text>
<polygon fill="#e7e2dd" stroke="transparent" points="883.44,-184.96 883.44,-244.96 1326.44,-244.96 1326.44,-184.96 883.44,-184.96"/>
<polygon fill="none" stroke="#29235c" points="883.44,-184.96 883.44,-244.96 1326.44,-244.96 1326.44,-184.96 883.44,-184.96"/>
<text text-anchor="start" x="894.44" y="-205.16" font-family="Helvetica,sans-Serif" font-size="32.00" fill="#29235c">title &#160;&#160;&#160;</text>
<text text-anchor="start" x="1084.34" y="-206.16" font-family="Helvetica,sans-Serif" font-style="italic" font-size="32.00" fill="#29235c">VARCHAR(100)</text>
<polygon fill="#e7e2dd" stroke="transparent" points="883.44,-124.96 883.44,-184.96 1326.44,-184.96 1326.44,-124.96 883.44,-124.96"/>
<polygon fill="none" stroke="#29235c" points="883.44,-124.96 883.44,-184.96 1326.44,-184.96 1326.44,-124.96 883.44,-124.96"/>
<text text-anchor="start" x="894.31" y="-145.16" font-family="Helvetica,sans-Serif" font-size="32.00" fill="#29235c">description &#160;&#160;&#160;</text>
<text text-anchor="start" x="1084.39" y="-146.16" font-family="Helvetica,sans-Serif" font-style="italic" font-size="32.00" fill="#29235c">VARCHAR(250)</text>
<polygon fill="none" stroke="#29235c" stroke-width="2" points="881.94,-123.96 881.94,-365.96 1326.94,-365.96 1326.94,-123.96 881.94,-123.96"/>
</g>
<!-- Meeting -->
<g id="Meeting" class="node">
<title>Meeting</title>
<ellipse fill="none" stroke="black" stroke-width="0" cx="361.33" cy="-2773.96" rx="316.15" ry="172.57"/>
<polygon fill="#1d71b8" stroke="transparent" points="140.33,-2833.96 140.33,-2893.96 583.33,-2893.96 583.33,-2833.96 140.33,-2833.96"/>
<polygon fill="none" stroke="#29235c" points="140.33,-2833.96 140.33,-2893.96 583.33,-2893.96 583.33,-2833.96 140.33,-2833.96"/>
<text text-anchor="start" x="242.68" y="-2855.16" font-family="Helvetica,sans-Serif" font-weight="bold" font-size="32.00" fill="#ffffff"> &#160;&#160;&#160;&#160;&#160;&#160;Meeting &#160;&#160;&#160;&#160;&#160;&#160;</text>
<polygon fill="#e7e2dd" stroke="transparent" points="140.33,-2773.96 140.33,-2833.96 583.33,-2833.96 583.33,-2773.96 140.33,-2773.96"/>
<polygon fill="none" stroke="#29235c" points="140.33,-2773.96 140.33,-2833.96 583.33,-2833.96 583.33,-2773.96 140.33,-2773.96"/>
<text text-anchor="start" x="151.33" y="-2795.16" font-family="Helvetica,sans-Serif" font-weight="bold" font-size="32.00" fill="#29235c">id</text>
<text text-anchor="start" x="176.22" y="-2795.16" font-family="Helvetica,sans-Serif" font-size="32.00" fill="#29235c"> &#160;&#160;&#160;</text>
<text text-anchor="start" x="430.11" y="-2795.16" font-family="Helvetica,sans-Serif" font-style="italic" font-size="32.00" fill="#29235c">INTEGER</text>
<polygon fill="#e7e2dd" stroke="transparent" points="140.33,-2713.96 140.33,-2773.96 583.33,-2773.96 583.33,-2713.96 140.33,-2713.96"/>
<polygon fill="none" stroke="#29235c" points="140.33,-2713.96 140.33,-2773.96 583.33,-2773.96 583.33,-2713.96 140.33,-2713.96"/>
<text text-anchor="start" x="151.33" y="-2734.16" font-family="Helvetica,sans-Serif" font-size="32.00" fill="#29235c">date &#160;&#160;&#160;</text>
<text text-anchor="start" x="410.57" y="-2735.16" font-family="Helvetica,sans-Serif" font-style="italic" font-size="32.00" fill="#29235c">DATETIME</text>
<polygon fill="#e7e2dd" stroke="transparent" points="140.33,-2653.96 140.33,-2713.96 583.33,-2713.96 583.33,-2653.96 140.33,-2653.96"/>
<polygon fill="none" stroke="#29235c" points="140.33,-2653.96 140.33,-2713.96 583.33,-2713.96 583.33,-2653.96 140.33,-2653.96"/>
<text text-anchor="start" x="151.2" y="-2674.16" font-family="Helvetica,sans-Serif" font-size="32.00" fill="#29235c">description &#160;&#160;&#160;</text>
<text text-anchor="start" x="341.28" y="-2675.16" font-family="Helvetica,sans-Serif" font-style="italic" font-size="32.00" fill="#29235c">VARCHAR(250)</text>
<polygon fill="none" stroke="#29235c" stroke-width="2" points="138.83,-2652.96 138.83,-2894.96 583.83,-2894.96 583.83,-2652.96 138.83,-2652.96"/>
</g>
<!-- PersonnelSkill -->
<g id="PersonnelSkill" class="node">
<title>PersonnelSkill</title>
<ellipse fill="none" stroke="black" stroke-width="0" cx="361.33" cy="-662.96" rx="361.16" ry="214.92"/>
<polygon fill="#1d71b8" stroke="transparent" points="108.33,-752.96 108.33,-812.96 615.33,-812.96 615.33,-752.96 108.33,-752.96"/>
<polygon fill="none" stroke="#29235c" points="108.33,-752.96 108.33,-812.96 615.33,-812.96 615.33,-752.96 108.33,-752.96"/>
<text text-anchor="start" x="198.24" y="-774.16" font-family="Helvetica,sans-Serif" font-weight="bold" font-size="32.00" fill="#ffffff"> &#160;&#160;&#160;&#160;&#160;&#160;PersonnelSkill &#160;&#160;&#160;&#160;&#160;&#160;</text>
<polygon fill="#e7e2dd" stroke="transparent" points="108.33,-692.96 108.33,-752.96 615.33,-752.96 615.33,-692.96 108.33,-692.96"/>
<polygon fill="none" stroke="#29235c" points="108.33,-692.96 108.33,-752.96 615.33,-752.96 615.33,-692.96 108.33,-692.96"/>
<text text-anchor="start" x="119.33" y="-714.16" font-family="Helvetica,sans-Serif" font-weight="bold" font-size="32.00" fill="#29235c">id</text>
<text text-anchor="start" x="144.22" y="-714.16" font-family="Helvetica,sans-Serif" font-size="32.00" fill="#29235c"> &#160;&#160;&#160;</text>
<text text-anchor="start" x="462.11" y="-714.16" font-family="Helvetica,sans-Serif" font-style="italic" font-size="32.00" fill="#29235c">INTEGER</text>
<polygon fill="#e7e2dd" stroke="transparent" points="108.33,-632.96 108.33,-692.96 615.33,-692.96 615.33,-632.96 108.33,-632.96"/>
<polygon fill="none" stroke="#29235c" points="108.33,-632.96 108.33,-692.96 615.33,-692.96 615.33,-632.96 108.33,-632.96"/>
<text text-anchor="start" x="119.33" y="-653.16" font-family="Helvetica,sans-Serif" font-size="32.00" fill="#29235c">personnel_id &#160;&#160;&#160;</text>
<text text-anchor="start" x="462.11" y="-654.16" font-family="Helvetica,sans-Serif" font-style="italic" font-size="32.00" fill="#29235c">INTEGER</text>
<polygon fill="#e7e2dd" stroke="transparent" points="108.33,-572.96 108.33,-632.96 615.33,-632.96 615.33,-572.96 108.33,-572.96"/>
<polygon fill="none" stroke="#29235c" points="108.33,-572.96 108.33,-632.96 615.33,-632.96 615.33,-572.96 108.33,-572.96"/>
<text text-anchor="start" x="119.33" y="-593.16" font-family="Helvetica,sans-Serif" font-size="32.00" fill="#29235c">skill_id &#160;&#160;&#160;</text>
<text text-anchor="start" x="462.11" y="-594.16" font-family="Helvetica,sans-Serif" font-style="italic" font-size="32.00" fill="#29235c">INTEGER</text>
<polygon fill="#e7e2dd" stroke="transparent" points="108.33,-512.96 108.33,-572.96 615.33,-572.96 615.33,-512.96 108.33,-512.96"/>
<polygon fill="none" stroke="#29235c" points="108.33,-512.96 108.33,-572.96 615.33,-572.96 615.33,-512.96 108.33,-512.96"/>
<text text-anchor="start" x="119.31" y="-533.16" font-family="Helvetica,sans-Serif" font-size="32.00" fill="#29235c">proficiency_level &#160;&#160;&#160;</text>
<text text-anchor="start" x="391.18" y="-534.16" font-family="Helvetica,sans-Serif" font-style="italic" font-size="32.00" fill="#29235c">VARCHAR(50)</text>
<polygon fill="none" stroke="#29235c" stroke-width="2" points="106.83,-511.96 106.83,-813.96 615.83,-813.96 615.83,-511.96 106.83,-511.96"/>
</g>
<!-- PersonnelSkill&#45;&gt;Personnel -->
<!-- PersonnelSkill&#45;&gt;Personnel -->
<g id="edge8" class="edge">
<title>PersonnelSkill:e&#45;&gt;Personnel:w</title>
<path fill="none" stroke="#29235c" stroke-width="3" d="M616.33,-662.96C826.61,-662.96 653.49,-1563.23 851.41,-1592.24"/>
<polygon fill="#29235c" stroke="#29235c" stroke-width="3" points="851.21,-1595.74 861.44,-1592.96 851.71,-1588.76 851.21,-1595.74"/>
<text text-anchor="middle" x="855.22" y="-1602.56" font-family="Helvetica,sans-Serif" font-size="32.00" fill="#29235c">*</text>
<text text-anchor="middle" x="625.23" y="-634.16" font-family="Helvetica,sans-Serif" font-size="32.00" fill="#29235c">1</text>
</g>
<!-- Skill -->
<g id="Skill" class="node">
<title>Skill</title>
<ellipse fill="none" stroke="black" stroke-width="0" cx="1104.44" cy="-607.96" rx="316.15" ry="172.57"/>
<polygon fill="#1d71b8" stroke="transparent" points="883.44,-667.96 883.44,-727.96 1326.44,-727.96 1326.44,-667.96 883.44,-667.96"/>
<polygon fill="none" stroke="#29235c" points="883.44,-667.96 883.44,-727.96 1326.44,-727.96 1326.44,-667.96 883.44,-667.96"/>
<text text-anchor="start" x="1013.37" y="-689.16" font-family="Helvetica,sans-Serif" font-weight="bold" font-size="32.00" fill="#ffffff"> &#160;&#160;&#160;&#160;&#160;&#160;Skill &#160;&#160;&#160;&#160;&#160;&#160;</text>
<polygon fill="#e7e2dd" stroke="transparent" points="883.44,-607.96 883.44,-667.96 1326.44,-667.96 1326.44,-607.96 883.44,-607.96"/>
<polygon fill="none" stroke="#29235c" points="883.44,-607.96 883.44,-667.96 1326.44,-667.96 1326.44,-607.96 883.44,-607.96"/>
<text text-anchor="start" x="894.44" y="-629.16" font-family="Helvetica,sans-Serif" font-weight="bold" font-size="32.00" fill="#29235c">id</text>
<text text-anchor="start" x="919.33" y="-629.16" font-family="Helvetica,sans-Serif" font-size="32.00" fill="#29235c"> &#160;&#160;&#160;</text>
<text text-anchor="start" x="1173.22" y="-629.16" font-family="Helvetica,sans-Serif" font-style="italic" font-size="32.00" fill="#29235c">INTEGER</text>
<polygon fill="#e7e2dd" stroke="transparent" points="883.44,-547.96 883.44,-607.96 1326.44,-607.96 1326.44,-547.96 883.44,-547.96"/>
<polygon fill="none" stroke="#29235c" points="883.44,-547.96 883.44,-607.96 1326.44,-607.96 1326.44,-547.96 883.44,-547.96"/>
<text text-anchor="start" x="894.44" y="-568.16" font-family="Helvetica,sans-Serif" font-size="32.00" fill="#29235c">name &#160;&#160;&#160;</text>
<text text-anchor="start" x="1084.34" y="-569.16" font-family="Helvetica,sans-Serif" font-style="italic" font-size="32.00" fill="#29235c">VARCHAR(100)</text>
<polygon fill="#e7e2dd" stroke="transparent" points="883.44,-487.96 883.44,-547.96 1326.44,-547.96 1326.44,-487.96 883.44,-487.96"/>
<polygon fill="none" stroke="#29235c" points="883.44,-487.96 883.44,-547.96 1326.44,-547.96 1326.44,-487.96 883.44,-487.96"/>
<text text-anchor="start" x="894.31" y="-508.16" font-family="Helvetica,sans-Serif" font-size="32.00" fill="#29235c">description &#160;&#160;&#160;</text>
<text text-anchor="start" x="1084.39" y="-509.16" font-family="Helvetica,sans-Serif" font-style="italic" font-size="32.00" fill="#29235c">VARCHAR(250)</text>
<polygon fill="none" stroke="#29235c" stroke-width="2" points="881.94,-486.96 881.94,-728.96 1326.94,-728.96 1326.94,-486.96 881.94,-486.96"/>
</g>
<!-- PersonnelSkill&#45;&gt;Skill -->
<!-- PersonnelSkill&#45;&gt;Skill -->
<g id="edge10" class="edge">
<title>PersonnelSkill:e&#45;&gt;Skill:w</title>
<path fill="none" stroke="#29235c" stroke-width="3" d="M616.33,-602.96C732.13,-602.96 761.46,-635.94 872.19,-637.87"/>
<polygon fill="#29235c" stroke="#29235c" stroke-width="3" points="872.41,-641.37 882.44,-637.96 872.47,-634.37 872.41,-641.37"/>
<text text-anchor="middle" x="888.66" y="-609.16" font-family="Helvetica,sans-Serif" font-size="32.00" fill="#29235c">*</text>
<text text-anchor="middle" x="625.23" y="-574.16" font-family="Helvetica,sans-Serif" font-size="32.00" fill="#29235c">1</text>
</g>
<!-- PersonnelTraining -->
<g id="PersonnelTraining" class="node">
<title>PersonnelTraining</title>
<ellipse fill="none" stroke="black" stroke-width="0" cx="361.33" cy="-1110.96" rx="289.83" ry="214.92"/>
<polygon fill="#1d71b8" stroke="transparent" points="158.33,-1200.96 158.33,-1260.96 564.33,-1260.96 564.33,-1200.96 158.33,-1200.96"/>
<polygon fill="none" stroke="#29235c" points="158.33,-1200.96 158.33,-1260.96 564.33,-1260.96 564.33,-1200.96 158.33,-1200.96"/>
<text text-anchor="start" x="169.28" y="-1222.16" font-family="Helvetica,sans-Serif" font-weight="bold" font-size="32.00" fill="#ffffff"> &#160;&#160;&#160;&#160;&#160;&#160;PersonnelTraining &#160;&#160;&#160;&#160;&#160;&#160;</text>
<polygon fill="#e7e2dd" stroke="transparent" points="158.33,-1140.96 158.33,-1200.96 564.33,-1200.96 564.33,-1140.96 158.33,-1140.96"/>
<polygon fill="none" stroke="#29235c" points="158.33,-1140.96 158.33,-1200.96 564.33,-1200.96 564.33,-1140.96 158.33,-1140.96"/>
<text text-anchor="start" x="169.33" y="-1162.16" font-family="Helvetica,sans-Serif" font-weight="bold" font-size="32.00" fill="#29235c">id</text>
<text text-anchor="start" x="194.22" y="-1162.16" font-family="Helvetica,sans-Serif" font-size="32.00" fill="#29235c"> &#160;&#160;&#160;</text>
<text text-anchor="start" x="411.11" y="-1162.16" font-family="Helvetica,sans-Serif" font-style="italic" font-size="32.00" fill="#29235c">INTEGER</text>
<polygon fill="#e7e2dd" stroke="transparent" points="158.33,-1080.96 158.33,-1140.96 564.33,-1140.96 564.33,-1080.96 158.33,-1080.96"/>
<polygon fill="none" stroke="#29235c" points="158.33,-1080.96 158.33,-1140.96 564.33,-1140.96 564.33,-1080.96 158.33,-1080.96"/>
<text text-anchor="start" x="169.33" y="-1101.16" font-family="Helvetica,sans-Serif" font-size="32.00" fill="#29235c">personnel_id &#160;&#160;&#160;</text>
<text text-anchor="start" x="411.11" y="-1102.16" font-family="Helvetica,sans-Serif" font-style="italic" font-size="32.00" fill="#29235c">INTEGER</text>
<polygon fill="#e7e2dd" stroke="transparent" points="158.33,-1020.96 158.33,-1080.96 564.33,-1080.96 564.33,-1020.96 158.33,-1020.96"/>
<polygon fill="none" stroke="#29235c" points="158.33,-1020.96 158.33,-1080.96 564.33,-1080.96 564.33,-1020.96 158.33,-1020.96"/>
<text text-anchor="start" x="169.33" y="-1041.16" font-family="Helvetica,sans-Serif" font-size="32.00" fill="#29235c">training_id &#160;&#160;&#160;</text>
<text text-anchor="start" x="411.11" y="-1042.16" font-family="Helvetica,sans-Serif" font-style="italic" font-size="32.00" fill="#29235c">INTEGER</text>
<polygon fill="#e7e2dd" stroke="transparent" points="158.33,-960.96 158.33,-1020.96 564.33,-1020.96 564.33,-960.96 158.33,-960.96"/>
<polygon fill="none" stroke="#29235c" points="158.33,-960.96 158.33,-1020.96 564.33,-1020.96 564.33,-960.96 158.33,-960.96"/>
<text text-anchor="start" x="169.33" y="-981.16" font-family="Helvetica,sans-Serif" font-size="32.00" fill="#29235c">date_completed &#160;&#160;&#160;</text>
<text text-anchor="start" x="468" y="-982.16" font-family="Helvetica,sans-Serif" font-style="italic" font-size="32.00" fill="#29235c">DATE</text>
<polygon fill="none" stroke="#29235c" stroke-width="2" points="157.33,-959.96 157.33,-1261.96 565.33,-1261.96 565.33,-959.96 157.33,-959.96"/>
</g>
<!-- PersonnelTraining&#45;&gt;Personnel -->
<!-- PersonnelTraining&#45;&gt;Personnel -->
<g id="edge12" class="edge">
<title>PersonnelTraining:e&#45;&gt;Personnel:w</title>
<path fill="none" stroke="#29235c" stroke-width="3" d="M565.33,-1110.96C686.63,-1110.96 658.94,-1230.75 722.66,-1333.96 789.4,-1442.04 734.05,-1584.9 851.15,-1592.63"/>
<polygon fill="#29235c" stroke="#29235c" stroke-width="3" points="851.33,-1596.14 861.44,-1592.96 851.55,-1589.14 851.33,-1596.14"/>
<text text-anchor="middle" x="855.22" y="-1564.16" font-family="Helvetica,sans-Serif" font-size="32.00" fill="#29235c">*</text>
<text text-anchor="middle" x="574.23" y="-1120.56" font-family="Helvetica,sans-Serif" font-size="32.00" fill="#29235c">1</text>
</g>
<!-- Training -->
<g id="Training" class="node">
<title>Training</title>
<ellipse fill="none" stroke="black" stroke-width="0" cx="1104.44" cy="-1012.96" rx="316.15" ry="214.92"/>
<polygon fill="#1d71b8" stroke="transparent" points="883.44,-1102.96 883.44,-1162.96 1326.44,-1162.96 1326.44,-1102.96 883.44,-1102.96"/>
<polygon fill="none" stroke="#29235c" points="883.44,-1102.96 883.44,-1162.96 1326.44,-1162.96 1326.44,-1102.96 883.44,-1102.96"/>
<text text-anchor="start" x="984.91" y="-1124.16" font-family="Helvetica,sans-Serif" font-weight="bold" font-size="32.00" fill="#ffffff"> &#160;&#160;&#160;&#160;&#160;&#160;Training &#160;&#160;&#160;&#160;&#160;&#160;</text>
<polygon fill="#e7e2dd" stroke="transparent" points="883.44,-1042.96 883.44,-1102.96 1326.44,-1102.96 1326.44,-1042.96 883.44,-1042.96"/>
<polygon fill="none" stroke="#29235c" points="883.44,-1042.96 883.44,-1102.96 1326.44,-1102.96 1326.44,-1042.96 883.44,-1042.96"/>
<text text-anchor="start" x="894.44" y="-1064.16" font-family="Helvetica,sans-Serif" font-weight="bold" font-size="32.00" fill="#29235c">id</text>
<text text-anchor="start" x="919.33" y="-1064.16" font-family="Helvetica,sans-Serif" font-size="32.00" fill="#29235c"> &#160;&#160;&#160;</text>
<text text-anchor="start" x="1173.22" y="-1064.16" font-family="Helvetica,sans-Serif" font-style="italic" font-size="32.00" fill="#29235c">INTEGER</text>
<polygon fill="#e7e2dd" stroke="transparent" points="883.44,-982.96 883.44,-1042.96 1326.44,-1042.96 1326.44,-982.96 883.44,-982.96"/>
<polygon fill="none" stroke="#29235c" points="883.44,-982.96 883.44,-1042.96 1326.44,-1042.96 1326.44,-982.96 883.44,-982.96"/>
<text text-anchor="start" x="894.44" y="-1003.16" font-family="Helvetica,sans-Serif" font-size="32.00" fill="#29235c">name &#160;&#160;&#160;</text>
<text text-anchor="start" x="1084.34" y="-1004.16" font-family="Helvetica,sans-Serif" font-style="italic" font-size="32.00" fill="#29235c">VARCHAR(100)</text>
<polygon fill="#e7e2dd" stroke="transparent" points="883.44,-922.96 883.44,-982.96 1326.44,-982.96 1326.44,-922.96 883.44,-922.96"/>
<polygon fill="none" stroke="#29235c" points="883.44,-922.96 883.44,-982.96 1326.44,-982.96 1326.44,-922.96 883.44,-922.96"/>
<text text-anchor="start" x="894.31" y="-943.16" font-family="Helvetica,sans-Serif" font-size="32.00" fill="#29235c">description &#160;&#160;&#160;</text>
<text text-anchor="start" x="1084.39" y="-944.16" font-family="Helvetica,sans-Serif" font-style="italic" font-size="32.00" fill="#29235c">VARCHAR(250)</text>
<polygon fill="#e7e2dd" stroke="transparent" points="883.44,-862.96 883.44,-922.96 1326.44,-922.96 1326.44,-862.96 883.44,-862.96"/>
<polygon fill="none" stroke="#29235c" points="883.44,-862.96 883.44,-922.96 1326.44,-922.96 1326.44,-862.96 883.44,-862.96"/>
<text text-anchor="start" x="894.44" y="-883.16" font-family="Helvetica,sans-Serif" font-size="32.00" fill="#29235c">date_provided &#160;&#160;&#160;</text>
<text text-anchor="start" x="1230.11" y="-884.16" font-family="Helvetica,sans-Serif" font-style="italic" font-size="32.00" fill="#29235c">DATE</text>
<polygon fill="none" stroke="#29235c" stroke-width="2" points="881.94,-861.96 881.94,-1163.96 1326.94,-1163.96 1326.94,-861.96 881.94,-861.96"/>
</g>
<!-- PersonnelTraining&#45;&gt;Training -->
<!-- PersonnelTraining&#45;&gt;Training -->
<g id="edge14" class="edge">
<title>PersonnelTraining:e&#45;&gt;Training:w</title>
<path fill="none" stroke="#29235c" stroke-width="3" d="M565.33,-1050.96C703.16,-1050.96 739.41,-1071.9 872.28,-1072.92"/>
<polygon fill="#29235c" stroke="#29235c" stroke-width="3" points="872.43,-1076.42 882.44,-1072.96 872.45,-1069.42 872.43,-1076.42"/>
<text text-anchor="middle" x="888.66" y="-1082.56" font-family="Helvetica,sans-Serif" font-size="32.00" fill="#29235c">*</text>
<text text-anchor="middle" x="574.23" y="-1060.56" font-family="Helvetica,sans-Serif" font-size="32.00" fill="#29235c">1</text>
</g>
<!-- ProjectAssignment -->
<g id="ProjectAssignment" class="node">
<title>ProjectAssignment</title>
<ellipse fill="none" stroke="black" stroke-width="0" cx="361.33" cy="-1920.96" rx="294.73" ry="214.92"/>
<polygon fill="#1d71b8" stroke="transparent" points="155.33,-2010.96 155.33,-2070.96 568.33,-2070.96 568.33,-2010.96 155.33,-2010.96"/>
<polygon fill="none" stroke="#29235c" points="155.33,-2010.96 155.33,-2070.96 568.33,-2070.96 568.33,-2010.96 155.33,-2010.96"/>
<text text-anchor="start" x="166.23" y="-2032.16" font-family="Helvetica,sans-Serif" font-weight="bold" font-size="32.00" fill="#ffffff"> &#160;&#160;&#160;&#160;&#160;&#160;ProjectAssignment &#160;&#160;&#160;&#160;&#160;&#160;</text>
<polygon fill="#e7e2dd" stroke="transparent" points="155.33,-1950.96 155.33,-2010.96 568.33,-2010.96 568.33,-1950.96 155.33,-1950.96"/>
<polygon fill="none" stroke="#29235c" points="155.33,-1950.96 155.33,-2010.96 568.33,-2010.96 568.33,-1950.96 155.33,-1950.96"/>
<text text-anchor="start" x="166.33" y="-1972.16" font-family="Helvetica,sans-Serif" font-weight="bold" font-size="32.00" fill="#29235c">id</text>
<text text-anchor="start" x="191.22" y="-1972.16" font-family="Helvetica,sans-Serif" font-size="32.00" fill="#29235c"> &#160;&#160;&#160;</text>
<text text-anchor="start" x="415.11" y="-1972.16" font-family="Helvetica,sans-Serif" font-style="italic" font-size="32.00" fill="#29235c">INTEGER</text>
<polygon fill="#e7e2dd" stroke="transparent" points="155.33,-1890.96 155.33,-1950.96 568.33,-1950.96 568.33,-1890.96 155.33,-1890.96"/>
<polygon fill="none" stroke="#29235c" points="155.33,-1890.96 155.33,-1950.96 568.33,-1950.96 568.33,-1890.96 155.33,-1890.96"/>
<text text-anchor="start" x="166.33" y="-1911.16" font-family="Helvetica,sans-Serif" font-size="32.00" fill="#29235c">personnel_id &#160;&#160;&#160;</text>
<text text-anchor="start" x="415.11" y="-1912.16" font-family="Helvetica,sans-Serif" font-style="italic" font-size="32.00" fill="#29235c">INTEGER</text>
<polygon fill="#e7e2dd" stroke="transparent" points="155.33,-1830.96 155.33,-1890.96 568.33,-1890.96 568.33,-1830.96 155.33,-1830.96"/>
<polygon fill="none" stroke="#29235c" points="155.33,-1830.96 155.33,-1890.96 568.33,-1890.96 568.33,-1830.96 155.33,-1830.96"/>
<text text-anchor="start" x="166.33" y="-1851.16" font-family="Helvetica,sans-Serif" font-size="32.00" fill="#29235c">project_id &#160;&#160;&#160;</text>
<text text-anchor="start" x="415.11" y="-1852.16" font-family="Helvetica,sans-Serif" font-style="italic" font-size="32.00" fill="#29235c">INTEGER</text>
<polygon fill="#e7e2dd" stroke="transparent" points="155.33,-1770.96 155.33,-1830.96 568.33,-1830.96 568.33,-1770.96 155.33,-1770.96"/>
<polygon fill="none" stroke="#29235c" points="155.33,-1770.96 155.33,-1830.96 568.33,-1830.96 568.33,-1770.96 155.33,-1770.96"/>
<text text-anchor="start" x="166.33" y="-1791.16" font-family="Helvetica,sans-Serif" font-size="32.00" fill="#29235c">role &#160;&#160;&#160;</text>
<text text-anchor="start" x="326.23" y="-1792.16" font-family="Helvetica,sans-Serif" font-style="italic" font-size="32.00" fill="#29235c">VARCHAR(100)</text>
<polygon fill="none" stroke="#29235c" stroke-width="2" points="153.83,-1769.96 153.83,-2071.96 568.83,-2071.96 568.83,-1769.96 153.83,-1769.96"/>
</g>
<!-- ProjectAssignment&#45;&gt;Personnel -->
<!-- ProjectAssignment&#45;&gt;Personnel -->
<g id="edge16" class="edge">
<title>ProjectAssignment:e&#45;&gt;Personnel:w</title>
<path fill="none" stroke="#29235c" stroke-width="3" d="M569.33,-1920.96C761.11,-1920.96 669.6,-1604.39 851.41,-1593.26"/>
<polygon fill="#29235c" stroke="#29235c" stroke-width="3" points="851.55,-1596.76 861.44,-1592.96 851.34,-1589.76 851.55,-1596.76"/>
<text text-anchor="middle" x="867.66" y="-1602.56" font-family="Helvetica,sans-Serif" font-size="32.00" fill="#29235c">*</text>
<text text-anchor="middle" x="578.23" y="-1930.56" font-family="Helvetica,sans-Serif" font-size="32.00" fill="#29235c">1</text>
</g>
<!-- ProjectAssignment&#45;&gt;Project -->
<!-- ProjectAssignment&#45;&gt;Project -->
<g id="edge18" class="edge">
<title>ProjectAssignment:e&#45;&gt;Project:w</title>
<path fill="none" stroke="#29235c" stroke-width="3" d="M569.33,-1860.96C776.64,-1860.96 710.93,-2170.42 909.17,-2180.7"/>
<polygon fill="#29235c" stroke="#29235c" stroke-width="3" points="909.35,-2184.2 919.44,-2180.96 909.53,-2177.21 909.35,-2184.2"/>
<text text-anchor="middle" x="925.66" y="-2152.16" font-family="Helvetica,sans-Serif" font-size="32.00" fill="#29235c">*</text>
<text text-anchor="middle" x="578.23" y="-1870.56" font-family="Helvetica,sans-Serif" font-size="32.00" fill="#29235c">1</text>
</g>
<!-- RoleSkillRequirement -->
<g id="RoleSkillRequirement" class="node">
<title>RoleSkillRequirement</title>
<ellipse fill="none" stroke="black" stroke-width="0" cx="361.33" cy="-214.96" rx="335.75" ry="214.92"/>
<polygon fill="#1d71b8" stroke="transparent" points="126.33,-304.96 126.33,-364.96 597.33,-364.96 597.33,-304.96 126.33,-304.96"/>
<polygon fill="none" stroke="#29235c" points="126.33,-304.96 126.33,-364.96 597.33,-364.96 597.33,-304.96 126.33,-304.96"/>
<text text-anchor="start" x="145.8" y="-326.16" font-family="Helvetica,sans-Serif" font-weight="bold" font-size="32.00" fill="#ffffff"> &#160;&#160;&#160;&#160;&#160;&#160;RoleSkillRequirement &#160;&#160;&#160;&#160;&#160;&#160;</text>
<polygon fill="#e7e2dd" stroke="transparent" points="126.33,-244.96 126.33,-304.96 597.33,-304.96 597.33,-244.96 126.33,-244.96"/>
<polygon fill="none" stroke="#29235c" points="126.33,-244.96 126.33,-304.96 597.33,-304.96 597.33,-244.96 126.33,-244.96"/>
<text text-anchor="start" x="137.33" y="-266.16" font-family="Helvetica,sans-Serif" font-weight="bold" font-size="32.00" fill="#29235c">id</text>
<text text-anchor="start" x="162.22" y="-266.16" font-family="Helvetica,sans-Serif" font-size="32.00" fill="#29235c"> &#160;&#160;&#160;</text>
<text text-anchor="start" x="444.11" y="-266.16" font-family="Helvetica,sans-Serif" font-style="italic" font-size="32.00" fill="#29235c">INTEGER</text>
<polygon fill="#e7e2dd" stroke="transparent" points="126.33,-184.96 126.33,-244.96 597.33,-244.96 597.33,-184.96 126.33,-184.96"/>
<polygon fill="none" stroke="#29235c" points="126.33,-184.96 126.33,-244.96 597.33,-244.96 597.33,-184.96 126.33,-184.96"/>
<text text-anchor="start" x="137.33" y="-205.16" font-family="Helvetica,sans-Serif" font-size="32.00" fill="#29235c">job_role_id &#160;&#160;&#160;</text>
<text text-anchor="start" x="444.11" y="-206.16" font-family="Helvetica,sans-Serif" font-style="italic" font-size="32.00" fill="#29235c">INTEGER</text>
<polygon fill="#e7e2dd" stroke="transparent" points="126.33,-124.96 126.33,-184.96 597.33,-184.96 597.33,-124.96 126.33,-124.96"/>
<polygon fill="none" stroke="#29235c" points="126.33,-124.96 126.33,-184.96 597.33,-184.96 597.33,-124.96 126.33,-124.96"/>
<text text-anchor="start" x="137.33" y="-145.16" font-family="Helvetica,sans-Serif" font-size="32.00" fill="#29235c">skill_id &#160;&#160;&#160;</text>
<text text-anchor="start" x="444.11" y="-146.16" font-family="Helvetica,sans-Serif" font-style="italic" font-size="32.00" fill="#29235c">INTEGER</text>
<polygon fill="#e7e2dd" stroke="transparent" points="126.33,-64.96 126.33,-124.96 597.33,-124.96 597.33,-64.96 126.33,-64.96"/>
<polygon fill="none" stroke="#29235c" points="126.33,-64.96 126.33,-124.96 597.33,-124.96 597.33,-64.96 126.33,-64.96"/>
<text text-anchor="start" x="137.09" y="-85.16" font-family="Helvetica,sans-Serif" font-size="32.00" fill="#29235c">level_required &#160;&#160;&#160;</text>
<text text-anchor="start" x="373.18" y="-86.16" font-family="Helvetica,sans-Serif" font-style="italic" font-size="32.00" fill="#29235c">VARCHAR(50)</text>
<polygon fill="none" stroke="#29235c" stroke-width="2" points="124.83,-63.96 124.83,-365.96 597.83,-365.96 597.83,-63.96 124.83,-63.96"/>
</g>
<!-- RoleSkillRequirement&#45;&gt;JobRole -->
<!-- RoleSkillRequirement&#45;&gt;JobRole -->
<g id="edge20" class="edge">
<title>RoleSkillRequirement:e&#45;&gt;JobRole:w</title>
<path fill="none" stroke="#29235c" stroke-width="3" d="M598.33,-214.96C723.86,-214.96 751.88,-271.72 872.08,-274.83"/>
<polygon fill="#29235c" stroke="#29235c" stroke-width="3" points="872.39,-278.33 882.44,-274.96 872.48,-271.33 872.39,-278.33"/>
<text text-anchor="middle" x="888.66" y="-246.16" font-family="Helvetica,sans-Serif" font-size="32.00" fill="#29235c">*</text>
<text text-anchor="middle" x="607.23" y="-186.16" font-family="Helvetica,sans-Serif" font-size="32.00" fill="#29235c">1</text>
</g>
<!-- RoleSkillRequirement&#45;&gt;Skill -->
<!-- RoleSkillRequirement&#45;&gt;Skill -->
<g id="edge22" class="edge">
<title>RoleSkillRequirement:e&#45;&gt;Skill:w</title>
<path fill="none" stroke="#29235c" stroke-width="3" d="M598.33,-154.96C843.85,-154.96 639.36,-624.38 872.13,-637.67"/>
<polygon fill="#29235c" stroke="#29235c" stroke-width="3" points="872.34,-641.18 882.44,-637.96 872.54,-634.18 872.34,-641.18"/>
<text text-anchor="middle" x="888.66" y="-647.56" font-family="Helvetica,sans-Serif" font-size="32.00" fill="#29235c">*</text>
<text text-anchor="middle" x="607.23" y="-126.16" font-family="Helvetica,sans-Serif" font-size="32.00" fill="#29235c">1</text>
</g>
</g>
</svg>
